<svg width="45" height="45" viewBox="0 0 45 45" fill="none" xmlns="http://www.w3.org/2000/svg">
<rect x="0.5" y="0.5" width="44" height="44" rx="3.5" stroke="#27DB44"/>
<path fill-rule="evenodd" clip-rule="evenodd" d="M19.8604 10.4651C19.8759 10.2927 19.8838 10.1182 19.8838 9.94183C19.8838 9.7813 19.8773 9.6223 19.8644 9.46509H39.7676V10.4651H19.8604ZM8.39567 10.4651H5.23267V9.46509H8.39166C8.37877 9.6223 8.3722 9.7813 8.3722 9.94183C8.3722 10.1182 8.38014 10.2927 8.39567 10.4651Z" fill="#27DB44"/>
<circle cx="14.1281" cy="9.94185" r="5.25581" stroke="#27DB44"/>
<path fill-rule="evenodd" clip-rule="evenodd" d="M36.6046 23.0233C36.6201 22.851 36.628 22.6764 36.628 22.5001C36.628 22.3395 36.6214 22.1805 36.6086 22.0233H39.7676V23.0233H36.6046ZM25.1399 23.0233H5.23267V22.0233H25.1359C25.123 22.1805 25.1164 22.3395 25.1164 22.5001C25.1164 22.6764 25.1243 22.851 25.1399 23.0233Z" fill="#27DB44"/>
<circle cx="30.8723" cy="22.5" r="5.25581" stroke="#27DB44"/>
<path fill-rule="evenodd" clip-rule="evenodd" d="M20.9069 35.5814C20.9224 35.4091 20.9303 35.2345 20.9303 35.0582C20.9303 34.8976 20.9238 34.7386 20.9109 34.5814H39.7676V35.5814H20.9069ZM9.44218 35.5814H5.23267V34.5814H9.43818C9.42529 34.7386 9.41871 34.8976 9.41871 35.0582C9.41871 35.2345 9.42665 35.4091 9.44218 35.5814Z" fill="#27DB44"/>
<circle cx="15.1745" cy="35.0582" r="5.25581" stroke="#27DB44"/>
</svg>
