<svg width="178" height="45" viewBox="0 0 178 45" fill="none" xmlns="http://www.w3.org/2000/svg">
<path fill-rule="evenodd" clip-rule="evenodd" d="M0 22.5C0 10.0736 10.0736 0 22.5 0H155.5C167.926 0 178 10.0736 178 22.5C178 34.9264 167.926 45 155.5 45H22.5C10.0736 45 0 34.9264 0 22.5ZM55.1317 28L59.7275 17.521C59.7261 17.5437 59.7253 17.5667 59.7253 17.59C59.7253 17.85 59.8153 18.07 59.9953 18.25C60.1853 18.43 60.4203 18.52 60.7003 18.52C60.9803 18.52 61.2103 18.43 61.3903 18.25C61.5803 18.06 61.6753 17.83 61.6753 17.56C61.6753 17.3 61.5803 17.085 61.3903 16.915C61.2103 16.735 60.9803 16.645 60.7003 16.645C60.4203 16.645 60.1853 16.74 59.9953 16.93C59.8365 17.0888 59.7477 17.2788 59.7291 17.5H58.2367L54.4267 26.125L50.6467 17.5H49.0267L53.6467 28H55.1317ZM61.4203 20.05V28H59.9803V20.05H61.4203ZM70.4548 24.07C70.4548 24.18 70.4448 24.325 70.4248 24.505H63.9748C64.0648 25.205 64.3698 25.77 64.8898 26.2C65.4198 26.62 66.0748 26.83 66.8548 26.83C67.8048 26.83 68.5698 26.51 69.1498 25.87L69.9448 26.8C69.5848 27.22 69.1348 27.54 68.5948 27.76C68.0648 27.98 67.4698 28.09 66.8098 28.09C65.9698 28.09 65.2248 27.92 64.5748 27.58C63.9248 27.23 63.4198 26.745 63.0598 26.125C62.7098 25.505 62.5348 24.805 62.5348 24.025C62.5348 23.255 62.7048 22.56 63.0448 21.94C63.3948 21.32 63.8698 20.84 64.4698 20.5C65.0798 20.15 65.7648 19.975 66.5248 19.975C67.2848 19.975 67.9598 20.15 68.5498 20.5C69.1498 20.84 69.6148 21.32 69.9448 21.94C70.2848 22.56 70.4548 23.27 70.4548 24.07ZM66.5248 21.19C65.8348 21.19 65.2548 21.4 64.7848 21.82C64.3248 22.24 64.0548 22.79 63.9748 23.47H69.0748C68.9948 22.8 68.7198 22.255 68.2498 21.835C67.7898 21.405 67.2148 21.19 66.5248 21.19ZM79.0879 28L76.7929 21.97L74.4679 28H73.0879L70.1329 20.05H71.4979L73.8079 26.38L76.2079 20.05H77.4229L79.7779 26.41L82.1479 20.05H83.4379L80.4679 28H79.0879ZM90.5324 28.09C89.7424 28.09 89.0324 27.915 88.4024 27.565C87.7724 27.215 87.2774 26.735 86.9174 26.125C86.5674 25.505 86.3924 24.805 86.3924 24.025C86.3924 23.245 86.5674 22.55 86.9174 21.94C87.2774 21.32 87.7724 20.84 88.4024 20.5C89.0324 20.15 89.7424 19.975 90.5324 19.975C91.3224 19.975 92.0274 20.15 92.6474 20.5C93.2774 20.84 93.7674 21.32 94.1174 21.94C94.4774 22.55 94.6574 23.245 94.6574 24.025C94.6574 24.805 94.4774 25.505 94.1174 26.125C93.7674 26.735 93.2774 27.215 92.6474 27.565C92.0274 27.915 91.3224 28.09 90.5324 28.09ZM90.5324 26.83C91.0424 26.83 91.4974 26.715 91.8974 26.485C92.3074 26.245 92.6274 25.915 92.8574 25.495C93.0874 25.065 93.2024 24.575 93.2024 24.025C93.2024 23.475 93.0874 22.99 92.8574 22.57C92.6274 22.14 92.3074 21.81 91.8974 21.58C91.4974 21.35 91.0424 21.235 90.5324 21.235C90.0224 21.235 89.5624 21.35 89.1524 21.58C88.7524 21.81 88.4324 22.14 88.1924 22.57C87.9624 22.99 87.8474 23.475 87.8474 24.025C87.8474 24.575 87.9624 25.065 88.1924 25.495C88.4324 25.915 88.7524 26.245 89.1524 26.485C89.5624 26.715 90.0224 26.83 90.5324 26.83ZM99.9939 19.975C101.004 19.975 101.804 20.27 102.394 20.86C102.994 21.44 103.294 22.295 103.294 23.425V28H101.854V23.59C101.854 22.82 101.669 22.24 101.299 21.85C100.929 21.46 100.399 21.265 99.7089 21.265C98.9289 21.265 98.3139 21.495 97.8639 21.955C97.4139 22.405 97.1889 23.055 97.1889 23.905V28H95.7489V20.05H97.1289V21.25C97.4189 20.84 97.8089 20.525 98.2989 20.305C98.7989 20.085 99.3639 19.975 99.9939 19.975ZM115.672 22.69H117.112V26.785C116.592 27.215 115.987 27.545 115.297 27.775C114.607 28.005 113.887 28.12 113.137 28.12C112.077 28.12 111.122 27.89 110.272 27.43C109.422 26.96 108.752 26.32 108.262 25.51C107.782 24.69 107.542 23.77 107.542 22.75C107.542 21.73 107.782 20.81 108.262 19.99C108.752 19.17 109.422 18.53 110.272 18.07C111.132 17.61 112.097 17.38 113.167 17.38C114.007 17.38 114.767 17.52 115.447 17.8C116.137 18.07 116.722 18.47 117.202 19L116.272 19.93C115.432 19.12 114.417 18.715 113.227 18.715C112.427 18.715 111.707 18.89 111.067 19.24C110.437 19.58 109.942 20.06 109.582 20.68C109.222 21.29 109.042 21.98 109.042 22.75C109.042 23.51 109.222 24.2 109.582 24.82C109.942 25.43 110.437 25.91 111.067 26.26C111.707 26.61 112.422 26.785 113.212 26.785C114.152 26.785 114.972 26.56 115.672 26.11V22.69ZM119.594 18.52C119.314 18.52 119.079 18.43 118.889 18.25C118.709 18.07 118.619 17.85 118.619 17.59C118.619 17.33 118.709 17.11 118.889 16.93C119.079 16.74 119.314 16.645 119.594 16.645C119.874 16.645 120.104 16.735 120.284 16.915C120.474 17.085 120.569 17.3 120.569 17.56C120.569 17.83 120.474 18.06 120.284 18.25C120.104 18.43 119.874 18.52 119.594 18.52ZM126.634 27.535C126.424 27.715 126.164 27.855 125.854 27.955C125.544 28.045 125.224 28.09 124.894 28.09C124.094 28.09 123.474 27.875 123.034 27.445C122.594 27.015 122.374 26.4 122.374 25.6V21.235H121.024V20.05H122.374V18.31H123.814V20.05H126.094V21.235H123.814V25.54C123.814 25.97 123.919 26.3 124.129 26.53C124.349 26.76 124.659 26.875 125.059 26.875C125.499 26.875 125.874 26.75 126.184 26.5L126.634 27.535ZM136.714 28H135.214V23.32H129.184V28H127.684V17.5H129.184V22.015H135.214V17.5H136.714V28ZM146.157 28H144.792V26.8C144.502 27.21 144.117 27.53 143.637 27.76C143.167 27.98 142.652 28.09 142.092 28.09C141.032 28.09 140.197 27.8 139.587 27.22C138.977 26.63 138.672 25.765 138.672 24.625V20.05H140.112V24.46C140.112 25.23 140.297 25.815 140.667 26.215C141.037 26.605 141.567 26.8 142.257 26.8C143.017 26.8 143.617 26.57 144.057 26.11C144.497 25.65 144.717 25 144.717 24.16V20.05H146.157V28ZM118.874 20.05H120.314V28H118.874V20.05ZM152.214 19.975C152.984 19.975 153.674 20.145 154.284 20.485C154.894 20.825 155.369 21.3 155.709 21.91C156.059 22.52 156.234 23.225 156.234 24.025C156.234 24.825 156.059 25.535 155.709 26.155C155.369 26.765 154.894 27.24 154.284 27.58C153.674 27.92 152.984 28.09 152.214 28.09C151.624 28.09 151.084 27.975 150.594 27.745C150.104 27.515 149.699 27.18 149.379 26.74V28H147.999V16.87H149.439V21.25C149.759 20.83 150.159 20.515 150.639 20.305C151.119 20.085 151.644 19.975 152.214 19.975ZM152.094 26.83C152.604 26.83 153.059 26.715 153.459 26.485C153.869 26.245 154.189 25.915 154.419 25.495C154.659 25.065 154.779 24.575 154.779 24.025C154.779 23.475 154.659 22.99 154.419 22.57C154.189 22.14 153.869 21.81 153.459 21.58C153.059 21.35 152.604 21.235 152.094 21.235C151.594 21.235 151.139 21.35 150.729 21.58C150.319 21.81 149.999 22.14 149.769 22.57C149.539 22.99 149.424 23.475 149.424 24.025C149.424 24.575 149.539 25.065 149.769 25.495C149.999 25.915 150.319 26.245 150.729 26.485C151.139 26.715 151.594 26.83 152.094 26.83ZM22 23C22 17.475 26.475 13 32 13C37.525 13 42 17.475 42 23C42 27.4125 39.1375 31.1625 35.1875 32.4875C34.6875 32.5875 34.5 32.275 34.5 32.0125C34.5 31.8997 34.5014 31.7043 34.5033 31.4443C34.507 30.9268 34.5125 30.1528 34.5125 29.2625C34.5125 28.325 34.2 27.725 33.8375 27.4125C36.0625 27.1625 38.4 26.3125 38.4 22.475C38.4 21.375 38.0125 20.4875 37.375 19.7875C37.475 19.5375 37.825 18.5125 37.275 17.1375C37.275 17.1375 36.4375 16.8625 34.525 18.1625C33.725 17.9375 32.875 17.825 32.025 17.825C31.175 17.825 30.325 17.9375 29.525 18.1625C27.6125 16.875 26.775 17.1375 26.775 17.1375C26.225 18.5125 26.575 19.5375 26.675 19.7875C26.0375 20.4875 25.65 21.3875 25.65 22.475C25.65 26.3 27.975 27.1625 30.2 27.4125C29.9125 27.6625 29.65 28.1 29.5625 28.75C28.9875 29.0125 27.55 29.4375 26.65 27.925C26.4625 27.625 25.9 26.8875 25.1125 26.9C24.275 26.9125 24.775 27.375 25.125 27.5625C25.55 27.8 26.0375 28.6875 26.15 28.975C26.35 29.5375 27 30.6125 29.5125 30.15C29.5125 30.6965 29.5178 31.2217 29.5215 31.5867C29.5235 31.781 29.525 31.93 29.525 32.0125C29.525 32.275 29.3375 32.575 28.8375 32.4875C24.8625 31.1625 22 27.425 22 23Z" fill="white"/>
</svg>
