<svg width="187" height="180" viewBox="0 0 187 180" fill="none" xmlns="http://www.w3.org/2000/svg">
<path d="M22.0375 91.7379C25.4432 91.7379 28.3998 92.2992 30.9073 93.422C33.4522 94.5448 35.3983 96.1541 36.7456 98.2499C38.0929 100.346 38.7666 102.834 38.7666 105.716C38.7666 108.561 38.0929 111.049 36.7456 113.183C35.3983 115.278 33.4522 116.888 30.9073 118.01C28.3998 119.133 25.4432 119.695 22.0375 119.695H13.1677V131.034H5.86974V91.7379H22.0375ZM21.7006 113.519C24.8818 113.519 27.2957 112.846 28.9424 111.498C30.5891 110.151 31.4125 108.224 31.4125 105.716C31.4125 103.209 30.5891 101.281 28.9424 99.934C27.2957 98.5867 24.8818 97.913 21.7006 97.913H13.1677V113.519H21.7006ZM48.4188 105.436C50.4398 102.292 53.9952 100.72 59.085 100.72V107.4C58.4862 107.288 57.9435 107.232 57.457 107.232C54.7249 107.232 52.5917 108.037 51.0573 109.646C49.5228 111.218 48.7556 113.501 48.7556 116.495V131.034H41.7384V101.057H48.4188V105.436ZM74.8685 131.427C71.8371 131.427 69.105 130.772 66.6724 129.463C64.2397 128.153 62.331 126.338 60.9463 124.017C59.599 121.659 58.9253 119.002 58.9253 116.046C58.9253 113.089 59.599 110.451 60.9463 108.13C62.331 105.81 64.2397 103.995 66.6724 102.685C69.105 101.375 71.8371 100.72 74.8685 100.72C77.9374 100.72 80.6882 101.375 83.1208 102.685C85.5534 103.995 87.4434 105.81 88.7907 108.13C90.1755 110.451 90.8678 113.089 90.8678 116.046C90.8678 119.002 90.1755 121.659 88.7907 124.017C87.4434 126.338 85.5534 128.153 83.1208 129.463C80.6882 130.772 77.9374 131.427 74.8685 131.427ZM74.8685 125.421C77.4509 125.421 79.5841 124.56 81.2682 122.838C82.9524 121.117 83.7945 118.852 83.7945 116.046C83.7945 113.239 82.9524 110.974 81.2682 109.253C79.5841 107.531 77.4509 106.671 74.8685 106.671C72.2862 106.671 70.1529 107.531 68.4688 109.253C66.8221 110.974 65.9987 113.239 65.9987 116.046C65.9987 118.852 66.8221 121.117 68.4688 122.838C70.1529 124.56 72.2862 125.421 74.8685 125.421ZM91.1222 142.318C88.1656 142.318 85.9201 141.738 84.3857 140.578L86.4066 135.357C87.4545 136.143 88.8206 136.536 90.5047 136.536C91.8146 136.536 92.8063 136.124 93.48 135.301C94.1911 134.515 94.5466 133.336 94.5466 131.764V101.057H101.564V131.596C101.564 134.927 100.647 137.546 98.8131 139.455C96.9793 141.364 94.4156 142.318 91.1222 142.318ZM98.0272 96.1166C96.7547 96.1166 95.6881 95.7237 94.8273 94.9377C93.9665 94.1144 93.5361 93.1039 93.5361 91.9063C93.5361 90.7087 93.9665 89.7169 94.8273 88.931C95.6881 88.1076 96.7547 87.6959 98.0272 87.6959C99.2996 87.6959 100.366 88.0889 101.227 88.8748C102.088 89.6233 102.518 90.5777 102.518 91.7379C102.518 92.9729 102.088 94.0208 101.227 94.8816C100.404 95.7049 99.3371 96.1166 98.0272 96.1166ZM135.579 116.214C135.579 116.701 135.542 117.393 135.467 118.291H111.945C112.357 120.499 113.423 122.258 115.145 123.568C116.904 124.841 119.075 125.477 121.657 125.477C124.95 125.477 127.664 124.391 129.797 122.221L133.558 126.543C132.211 128.153 130.508 129.369 128.45 130.192C126.391 131.016 124.071 131.427 121.488 131.427C118.195 131.427 115.295 130.772 112.787 129.463C110.28 128.153 108.333 126.338 106.949 124.017C105.601 121.659 104.928 119.002 104.928 116.046C104.928 113.126 105.583 110.507 106.893 108.186C108.24 105.828 110.092 103.995 112.45 102.685C114.808 101.375 117.465 100.72 120.422 100.72C123.341 100.72 125.942 101.375 128.225 102.685C130.545 103.957 132.342 105.772 133.614 108.13C134.924 110.451 135.579 113.145 135.579 116.214ZM120.422 106.334C118.176 106.334 116.268 107.007 114.696 108.355C113.161 109.665 112.226 111.424 111.889 113.632H128.899C128.599 111.461 127.682 109.702 126.148 108.355C124.613 107.007 122.705 106.334 120.422 106.334ZM152.705 131.427C149.599 131.427 146.811 130.772 144.341 129.463C141.87 128.153 139.943 126.338 138.558 124.017C137.174 121.659 136.481 119.002 136.481 116.046C136.481 113.089 137.174 110.451 138.558 108.13C139.943 105.81 141.852 103.995 144.284 102.685C146.754 101.375 149.561 100.72 152.705 100.72C155.662 100.72 158.244 101.319 160.452 102.516C162.698 103.714 164.382 105.436 165.505 107.681L160.115 110.825C159.255 109.44 158.169 108.411 156.859 107.737C155.587 107.026 154.183 106.671 152.649 106.671C150.029 106.671 147.859 107.531 146.137 109.253C144.415 110.937 143.555 113.201 143.555 116.046C143.555 118.89 144.397 121.173 146.081 122.894C147.802 124.579 149.992 125.421 152.649 125.421C154.183 125.421 155.587 125.084 156.859 124.41C158.169 123.699 159.255 122.651 160.115 121.266L165.505 124.41C164.344 126.656 162.641 128.396 160.396 129.631C158.188 130.829 155.624 131.427 152.705 131.427ZM186.606 129.406C185.783 130.08 184.772 130.585 183.575 130.922C182.415 131.259 181.18 131.427 179.87 131.427C176.576 131.427 174.031 130.567 172.235 128.845C170.439 127.123 169.54 124.616 169.54 121.323V106.895H164.6V101.281H169.54V94.4325H176.558V101.281H184.585V106.895H176.558V121.154C176.558 122.614 176.913 123.736 177.624 124.522C178.335 125.271 179.364 125.645 180.712 125.645C182.284 125.645 183.594 125.234 184.641 124.41L186.606 129.406ZM45.6998 156.937H52.6048V172.6C50.5838 174.209 48.226 175.444 45.5314 176.305C42.8368 177.165 40.0673 177.596 37.223 177.596C33.2185 177.596 29.607 176.735 26.3884 175.013C23.1698 173.254 20.6436 170.841 18.8098 167.772C16.9759 164.703 16.059 161.241 16.059 157.386C16.059 153.531 16.9759 150.07 18.8098 147.001C20.6436 143.932 23.1698 141.537 26.3884 139.815C29.6444 138.056 33.2933 137.176 37.3353 137.176C40.6287 137.176 43.6227 137.719 46.3173 138.804C49.012 139.89 51.2762 141.48 53.11 143.576L48.5067 148.067C45.5127 145.073 41.9012 143.576 37.6721 143.576C34.9026 143.576 32.4326 144.156 30.2619 145.316C28.1287 146.477 26.4445 148.105 25.2095 150.2C24.0119 152.296 23.4131 154.692 23.4131 157.386C23.4131 160.006 24.0119 162.364 25.2095 164.46C26.4445 166.555 28.1287 168.202 30.2619 169.4C32.4326 170.597 34.8839 171.196 37.616 171.196C40.6848 171.196 43.3795 170.522 45.6998 169.175V156.937ZM64.8687 151.436C66.8897 148.292 70.4451 146.72 75.5349 146.72V153.4C74.9361 153.288 74.3935 153.232 73.9069 153.232C71.1749 153.232 69.0417 154.037 67.5072 155.646C65.9728 157.218 65.2056 159.501 65.2056 162.495V177.034H58.1883V147.057H64.8687V151.436ZM106.027 162.214C106.027 162.701 105.989 163.393 105.914 164.291H82.3925C82.8042 166.499 83.8708 168.258 85.5924 169.568C87.3514 170.841 89.5221 171.477 92.1044 171.477C95.3978 171.477 98.1112 170.391 100.244 168.221L104.006 172.543C102.658 174.153 100.955 175.369 98.8971 176.192C96.8387 177.016 94.5183 177.427 91.936 177.427C88.6426 177.427 85.7421 176.772 83.2346 175.463C80.7271 174.153 78.781 172.338 77.3963 170.017C76.049 167.659 75.3753 165.002 75.3753 162.046C75.3753 159.126 76.0302 156.507 77.3401 154.186C78.6874 151.828 80.54 149.995 82.8978 148.685C85.2556 147.375 87.9128 146.72 90.8694 146.72C93.7885 146.72 96.3896 147.375 98.6725 148.685C100.993 149.957 102.789 151.772 104.062 154.13C105.372 156.451 106.027 159.145 106.027 162.214ZM90.8694 152.334C88.6239 152.334 86.7152 153.007 85.1433 154.355C83.6089 155.665 82.6732 157.424 82.3364 159.632H99.3462C99.0468 157.461 98.1299 155.702 96.5954 154.355C95.061 153.007 93.1523 152.334 90.8694 152.334ZM137.58 162.214C137.58 162.701 137.543 163.393 137.468 164.291H113.946C114.358 166.499 115.424 168.258 117.146 169.568C118.905 170.841 121.076 171.477 123.658 171.477C126.951 171.477 129.665 170.391 131.798 168.221L135.559 172.543C134.212 174.153 132.509 175.369 130.451 176.192C128.392 177.016 126.072 177.427 123.489 177.427C120.196 177.427 117.296 176.772 114.788 175.463C112.281 174.153 110.334 172.338 108.95 170.017C107.602 167.659 106.929 165.002 106.929 162.046C106.929 159.126 107.584 156.507 108.894 154.186C110.241 151.828 112.093 149.995 114.451 148.685C116.809 147.375 119.466 146.72 122.423 146.72C125.342 146.72 127.943 147.375 130.226 148.685C132.546 149.957 134.343 151.772 135.615 154.13C136.925 156.451 137.58 159.145 137.58 162.214ZM122.423 152.334C120.177 152.334 118.269 153.007 116.697 154.355C115.162 155.665 114.227 157.424 113.89 159.632H130.9C130.6 157.461 129.683 155.702 128.149 154.355C126.614 153.007 124.706 152.334 122.423 152.334ZM157.962 146.72C161.742 146.72 164.774 147.824 167.056 150.032C169.339 152.24 170.481 155.515 170.481 159.856V177.034H163.464V160.754C163.464 158.135 162.846 156.17 161.611 154.86C160.376 153.513 158.617 152.839 156.334 152.839C153.752 152.839 151.712 153.625 150.215 155.197C148.718 156.731 147.97 158.958 147.97 161.877V177.034H140.952V147.057H147.633V150.93C148.793 149.546 150.252 148.498 152.011 147.787C153.77 147.075 155.754 146.72 157.962 146.72Z" fill="white"/>
<path d="M113.084 36.9149C112.25 36.4386 111.387 36.0516 110.524 35.7241C111.387 35.3967 112.25 35.0097 113.084 34.5333C118.8 31.2288 121.985 25.2451 122.015 19.0826C116.686 16.0163 109.899 15.7782 104.153 19.0826C103.319 19.559 102.545 20.1246 101.831 20.6902C101.98 19.7674 102.069 18.8147 102.069 17.8621C102.069 11.2531 98.4668 5.50747 93.138 2.41138C87.8091 5.50747 84.207 11.2531 84.207 17.8621C84.207 18.8147 84.2963 19.7674 84.4451 20.6902C83.7306 20.0948 82.9566 19.5292 82.1231 19.0529C76.4072 15.7484 69.6196 15.9866 64.261 19.0529C64.261 25.2153 67.4464 31.1991 73.192 34.5036C74.0256 34.9799 74.8889 35.3669 75.7522 35.6944C74.8889 36.0218 74.0256 36.4089 73.192 36.8852C67.4762 40.1897 64.2908 46.1735 64.261 52.3359C69.5898 55.4022 76.3774 55.6403 82.1231 52.3359C82.9566 51.8595 83.7306 51.2939 84.4451 50.7283C84.2963 51.6809 84.207 52.6336 84.207 53.5862C84.207 60.1952 87.8091 65.9408 93.138 69.0369C98.4668 65.9408 102.069 60.1952 102.069 53.5862C102.069 52.6336 101.98 51.6809 101.831 50.758C102.545 51.3534 103.319 51.8893 104.153 52.3656C109.869 55.6701 116.656 55.432 122.015 52.3656C121.985 46.2032 118.8 40.2194 113.084 36.9149ZM93.138 47.6322C86.5588 47.6322 81.23 42.3033 81.23 35.7241C81.23 29.1449 86.5588 23.8161 93.138 23.8161C99.7172 23.8161 105.046 29.1449 105.046 35.7241C105.046 42.3033 99.7172 47.6322 93.138 47.6322Z" fill="white"/>
</svg>
